<?xml version="1.0" standalone="no"?>
<!DOCTYPE svg PUBLIC "-//W3C//DTD SVG 20010904//EN"
 "http://www.w3.org/TR/2001/REC-SVG-20010904/DTD/svg10.dtd">
<svg version="1.0" xmlns="http://www.w3.org/2000/svg"
 width="128.000000pt" height="128.000000pt" viewBox="0 0 128.000000 128.000000"
 preserveAspectRatio="xMidYMid meet">
<metadata>
Created by potrace 1.14, written by Peter Selinger 2001-2017
</metadata>
<g transform="translate(0.000000,128.000000) scale(0.100000,-0.100000)"
fill="#000000" stroke="none">
<path d="M850 1180 c-16 -16 -25 -18 -39 -11 -24 13 -80 -15 -148 -74 -59 -52
-77 -93 -76 -176 l0 -55 -36 -2 c-20 0 -63 -3 -96 -6 -108 -8 -128 -6 -161 19
-17 13 -46 25 -65 28 -40 4 -124 -13 -157 -34 -62 -38 -83 -137 -43 -204 16
-27 20 -48 17 -81 -3 -41 0 -48 38 -91 39 -42 46 -46 98 -51 52 -4 80 2 163
34 11 4 17 4 13 -1 -4 -4 1 -20 12 -35 29 -40 26 -99 -5 -129 -23 -21 -27 -34
-27 -76 0 -37 5 -47 47 -89 35 -35 54 -46 91 -52 64 -9 138 1 184 27 33 19 43
20 67 10 47 -19 127 -16 175 8 65 32 93 80 93 161 0 57 -4 73 -29 109 -16 23
-26 44 -22 48 15 15 90 10 133 -9 53 -24 100 -18 131 15 22 24 30 69 18 104
-5 15 0 28 19 49 14 15 25 38 25 53 0 73 -74 184 -134 199 -23 6 -30 15 -33
37 -2 17 -13 45 -24 63 -10 18 -19 50 -19 71 0 30 -7 44 -38 74 -21 20 -42 37
-46 37 -4 0 -21 11 -38 25 -36 30 -61 32 -88 5z"/>
</g>
</svg>
